<?xml version="1.0" encoding="utf-8"?>
<!-- Generator: Adobe Illustrator 28.1.0, SVG Export Plug-In . SVG Version: 6.00 Build 0)  -->
<svg version="1.1"
	 id="svg25799" xmlns:sodipodi="http://sodipodi.sourceforge.net/DTD/sodipodi-0.dtd" xmlns:inkscape="http://www.inkscape.org/namespaces/inkscape" xmlns:cc="http://creativecommons.org/ns#" xmlns:svg="http://www.w3.org/2000/svg" xmlns:rdf="http://www.w3.org/1999/02/22-rdf-syntax-ns#" xmlns:dc="http://purl.org/dc/elements/1.1/"
	 xmlns="http://www.w3.org/2000/svg" xmlns:xlink="http://www.w3.org/1999/xlink" x="0px" y="0px" viewBox="0 0 238 48.3"
	 style="enable-background:new 0 0 238 48.3;" xml:space="preserve">
<style type="text/css">
	.st0{fill:#FFFFFF;}
	.st1{clip-path:url(#SVGID_00000018918846072961233680000014358940043708715914_);}
	.st2{clip-path:url(#SVGID_00000084522680838779848850000002745193857296985728_);}
</style>
<sodipodi:namedview  bordercolor="#666666" borderopacity="1.0" fit-margin-bottom="0" fit-margin-left="0" fit-margin-right="0" fit-margin-top="0" id="base" inkscape:current-layer="layer1" inkscape:cx="122.7235" inkscape:cy="23.902185" inkscape:document-units="px" inkscape:pageopacity="0.0" inkscape:pageshadow="2" inkscape:window-height="744" inkscape:window-maximized="1" inkscape:window-width="1280" inkscape:window-x="-4" inkscape:window-y="-4" inkscape:zoom="3.6871503" pagecolor="#ffffff" showgrid="false" units="px">
	</sodipodi:namedview>
<g id="layer1" transform="translate(-274.41935,-619.38859)" inkscape:groupmode="layer" inkscape:label="Layer 1">
	<g id="g25484" transform="matrix(1.25,0,0,-1.25,350.2716,634.25721)">
		<path id="path25486" inkscape:connector-curvature="0" class="st0" d="M0,0l-5.1-10.5L-10.2,0h-3.1l8.2-17.1L3.1,0H0z"/>
	</g>
	<g id="g25488" transform="matrix(1.25,0,0,-1.25,219.74823,804.71734)">
		<g>
			<defs>
				<rect id="SVGID_1_" x="-71.9" y="-45" width="719.3" height="450"/>
			</defs>
			<clipPath id="SVGID_00000121272113556492527390000007707564978074869641_">
				<use xlink:href="#SVGID_1_"  style="overflow:visible;"/>
			</clipPath>
			<g id="g25490" style="clip-path:url(#SVGID_00000121272113556492527390000007707564978074869641_);">
				<g id="g25496" transform="translate(118.5529,124.1067)">
					<path id="path25498" inkscape:connector-curvature="0" class="st0" d="M0,0c1.1-1.4,2.3-2.2,4.3-2.2c1.7,0,3.7,0.7,3.7,2.6
						c0,1.8-1.8,2.2-3.6,2.6C1.2,3.7-1.5,4.3-1.5,7.8c0,3.2,3.1,4.9,6.2,4.9c2.3,0,4.5-0.9,5.7-3L8.1,8.1c-0.7,1.2-1.9,2-3.5,2
						c-1.5,0-3.3-0.7-3.3-2.3c0-1.4,2-2,4.2-2.4c3-0.6,5.4-1.6,5.4-5c0-3.8-3.3-5.2-6.6-5.2c-2.8,0-4.8,0.7-6.5,3.1L0,0z"/>
				</g>
				<g id="g25500" transform="translate(142.2472,134.0216)">
					<path id="path25502" inkscape:connector-curvature="0" class="st0" d="M0,0h-4.9v-8.3c0-2.1,0-3.8,2.5-3.8
						c0.8,0,1.7,0.2,2.5,0.6l0.1-2.5c-1-0.4-2.2-0.6-3.2-0.6c-3.9,0-4.6,2.1-4.6,5.6V0h-3.6v2.3h3.6v4.7h2.8V2.3l4.9,0V0z"/>
				</g>
				<g id="g25504" transform="translate(233.821,134.0216)">
					<path id="path25506" inkscape:connector-curvature="0" class="st0" d="M0,0h-4.9v-8.3c0-2.1,0-3.8,2.5-3.8
						c0.8,0,1.7,0.2,2.5,0.6l0.1-2.5c-1-0.4-2.2-0.6-3.2-0.6c-3.9,0-4.6,2.1-4.6,5.6V0h-3.6v2.3h3.6v4.7h2.8V2.3l4.9,0V0z"/>
				</g>
				<g id="g25508" transform="translate(165.7251,136.3681)">
					<path id="path25510" inkscape:connector-curvature="0" class="st0" d="M0,0h2.8v-2.4h0.1c1.5,1.8,3.6,2.8,6,2.8
						c5.2,0,8.7-3.7,8.7-8.7c0-5-3.7-8.7-8.3-8.7c-3,0-5.4,1.5-6.4,3.4H2.8V-23H0L0,0z M8.7-14.5c3.6,0,5.9,2.7,5.9,6.2
						c0,3.5-2.3,6.2-5.9,6.2S2.8-4.8,2.8-8.3C2.8-11.8,5.1-14.5,8.7-14.5"/>
				</g>
				<g id="g25512" transform="translate(161.6959,136.3681)">
					<path id="path25514" inkscape:connector-curvature="0" class="st0" d="M0,0h-2.8v-2.4h-0.1c-1.5,1.8-3.6,2.8-6,2.8
						c-5.2,0-8.7-3.7-8.7-8.7c0-5,3.7-8.7,8.3-8.7c3,0,5.4,1.5,6.4,3.4h0.1v-3H0L0,0z M-8.7-14.5c-3.6,0-5.9,2.7-5.9,6.2
						c0,3.5,2.3,6.2,5.9,6.2c3.6,0,5.9-2.7,5.9-6.2C-2.8-11.8-5.1-14.5-8.7-14.5"/>
				</g>
				<g id="g25516" transform="translate(186.1055,132.4233)">
					<path id="path25518" inkscape:connector-curvature="0" class="st0" d="M0,0c0,1.5-0.1,2.8-0.1,3.9h2.6c0-0.9,0.1-1.8,0.1-2.7
						h0.1c0.7,1.6,2.8,3.2,5.5,3.2c0.4,0,0.7,0,1.1-0.2L9.1,1.4c-0.5,0.1-1,0.2-1.5,0.2c-3.4,0-4.9-2.4-4.9-6.2v-8.1H0V0z"/>
				</g>
				<g id="g25520" transform="translate(206.0062,132.4233)">
					<path id="path25522" inkscape:connector-curvature="0" class="st0" d="M0,0c0,1.5-0.1,2.8-0.1,3.9h2.6c0-0.9,0.1-1.8,0.1-2.7
						h0.1c0.7,1.6,2.8,3.2,5.5,3.2c4.4,0,6.3-2.8,6.3-6.8v-10.3h-2.8v10c0,2.8-1.2,4.5-3.8,4.5c-3.6,0-5.2-2.6-5.2-6.4v-8.1H0L0,0z"
						/>
				</g>
			</g>
		</g>
	</g>
	<path id="path25524" inkscape:connector-curvature="0" class="st0" d="M358.1,634.3h3.5V655h-3.5V634.3z"/>
	<g id="g25526" transform="matrix(1.25,0,0,-1.25,219.74823,804.71734)">
		<g>
			<defs>
				<rect id="SVGID_00000111176102569744490300000009930774206074560173_" x="-71.9" y="-45" width="719.3" height="450"/>
			</defs>
			<clipPath id="SVGID_00000088812197527869917040000011478488113480639397_">
				<use xlink:href="#SVGID_00000111176102569744490300000009930774206074560173_"  style="overflow:visible;"/>
			</clipPath>
			<g id="g25528" style="clip-path:url(#SVGID_00000088812197527869917040000011478488113480639397_);">
				<g id="g25534" transform="translate(113.7059,139.6368)">
					<path id="path25536" inkscape:connector-curvature="0" class="st0" d="M0,0c0-0.9-0.7-1.6-1.6-1.6S-3.3-0.9-3.3,0
						c0,0.9,0.7,1.6,1.6,1.6S0,0.9,0,0"/>
				</g>
			</g>
		</g>
	</g>
	<path id="path25538" inkscape:connector-curvature="0" class="st0" d="M468.1,634.3h3.5V655h-3.5V634.3z"/>
	<g id="g25548" transform="matrix(1.25,0,0,-1.25,471.84373,630.17134)">
		<path id="path25550" inkscape:connector-curvature="0" class="st0" d="M0,0c0-0.9-0.7-1.6-1.6-1.6c-0.9,0-1.6,0.7-1.6,1.6
			c0,0.9,0.7,1.6,1.6,1.6C-0.7,1.6,0,0.9,0,0"/>
	</g>
	<g id="g25556" transform="matrix(1.25,0,0,-1.25,302.2706,667.44296)">
		<path id="path25558" inkscape:connector-curvature="0" class="st0" d="M0,0l9.7,16.8H-9.7L0,0z"/>
	</g>
	<g id="g25560" transform="matrix(1.25,0,0,-1.25,290.12485,646.41046)">
		<path id="path25562" inkscape:connector-curvature="0" class="st0" d="M0,0h19.4L9.7,16.8L0,0z"/>
	</g>
	<g id="g25564" transform="matrix(1.25,0,0,-1.25,298.9581,619.63859)">
		<path id="path25566" inkscape:connector-curvature="0" class="st0" d="M0,0h-19.4l12.4-21.4L2.6-4.6L0,0z"/>
	</g>
	<g id="g25568" transform="matrix(1.25,0,0,-1.25,305.58185,619.63859)">
		<path id="path25570" inkscape:connector-curvature="0" class="st0" d="M0,0l-2.6-4.6l9.7-16.8L19.4,0H0z"/>
	</g>
</g>
</svg>
